<svg id="Layer_1" data-name="Layer 1" xmlns="http://www.w3.org/2000/svg" viewBox="0 0 1024 1024"><defs><style>.cls-2{fill:#2a2700}</style></defs><path fill="#fffadf" d="M.5.5h1023v1023H.5z"/><path d="M1023 1v1022H1V1h1022m1-1H0v1024h1024V0z"/><path class="cls-2" d="M171.0625 534.375q6.375-6.68555 17.75-6.6875 11.25 0 17.6875 6.625a22.58773 22.58773 0 016.4375 16.375 21.73156 21.73156 0 01-6.5625 16.1875q-6.5625 6.43653-17.5625 6.4375-11.127 0-17.625-6.5a21.889 21.889 0 01-6.5-16.125 22.76341 22.76341 0 016.375-16.3125zM366.0625 435.5625v107h36.625v28.25h-110.25v-28.25h38.5v-78.625h-38.5v-28.375zM329.875 393.5a17.333 17.333 0 014.0625-5.9375 19.42063 19.42063 0 016.3125-3.75 23.28921 23.28921 0 018.1875-1.375q9.249 0 14.6875 5.1875a19.01509 19.01509 0 010 26.625q-5.4375 5.18847-14.6875 5.1875a23.245 23.245 0 01-8.1875-1.375 18.25707 18.25707 0 01-6.3125-3.875 16.051 16.051 0 01-4.0625-5.8125 19.95924 19.95924 0 010-14.875zM436.75 474.0625a65.01689 65.01689 0 0110.4375-21.875 47.98364 47.98364 0 0116.6875-14.125 48.74629 48.74629 0 0122.4375-5A43.274 43.274 0 01505 436.875a44.737 44.737 0 0114.3125 10.8125v-68.875h34.875v192h-31.375l-1.75-14.125a45.86446 45.86446 0 01-15 12.25 43.65032 43.65032 0 01-20 4.375 46.75219 46.75219 0 01-22.1875-5.1875 48.681 48.681 0 01-16.5625-14.3125 66.06832 66.06832 0 01-10.5-21.6875 98.13336 98.13336 0 01-3.625-27.3125v-2.625a104.33 104.33 0 013.5625-28.125zm32.625 46.5625a38.72254 38.72254 0 004.6875 12.6875 24.4216 24.4216 0 008.375 8.625 23.5716 23.5716 0 0012.5 3.125q9 0 14.9375-3.875a27.52348 27.52348 0 009.4375-10.625v-54.75a27.04542 27.04542 0 00-9.375-10.6875q-5.877-3.81153-14.75-3.8125A23.5406 23.5406 0 00482.625 464.5a24.80134 24.80134 0 00-8.4375 8.6875 42.86 42.86 0 00-4.75 13.0625 80.57609 80.57609 0 00-1.5 15.9375v2.625a81.94057 81.94057 0 001.4375 15.8125zM673.3125 378.8125v163.75h38.75v28.25h-114.375v-28.25h40.5v-135.375h-40.5v-28.375zM781.3125 568.1875a66.53482 66.53482 0 01-21.875-14A60.15414 60.15414 0 01745.375 533.5a66.18205 66.18205 0 01-4.9375-25.5625v-5a79.04169 79.04169 0 014.875-28.3125 65.67459 65.67459 0 0113.625-22.0625 61.45107 61.45107 0 0120.75-14.375 65.82606 65.82606 0 0126.125-5.125 66.69427 66.69427 0 0126.0625 4.8125 54.72751 54.72751 0 0119.4375 13.5625 59.11466 59.11466 0 0112 21.0625 85.1836 85.1836 0 014.125 27.1875v14.75h-91.75v.375a47.84259 47.84259 0 004.5 13.0625 33.03922 33.03922 0 007.375 8.9375 34.62345 34.62345 0 0010.875 6.375 38.50178 38.50178 0 0013.375 2.25 52.74719 52.74719 0 0019.875-3.875 36.60016 36.60016 0 0015.625-11.625l17.375 18.75q-6.627 9.375-21 17-14.376 7.626-34 7.625a75.463 75.463 0 01-28.375-5.125zm13.5-104.9375a24.70053 24.70053 0 00-8.5 5.9375 33.454 33.454 0 00-6.25 9.25 50.51069 50.51069 0 00-3.75 12h57v-2.75a27.09288 27.09288 0 00-2-10.375 26.72551 26.72551 0 00-5.5-8.5 25.61322 25.61322 0 00-8.5625-5.5625 30.80054 30.80054 0 00-11.6875-2.0625 27.31174 27.31174 0 00-10.75 2.0625z"/></svg>