<?xml version="1.0" encoding="UTF-8" standalone="no"?>
<svg
   xmlns:dc="http://purl.org/dc/elements/1.1/"
   xmlns:cc="http://creativecommons.org/ns#"
   xmlns:rdf="http://www.w3.org/1999/02/22-rdf-syntax-ns#"
   xmlns:svg="http://www.w3.org/2000/svg"
   xmlns="http://www.w3.org/2000/svg"
   xmlns:sodipodi="http://sodipodi.sourceforge.net/DTD/sodipodi-0.dtd"
   xmlns:inkscape="http://www.inkscape.org/namespaces/inkscape"
   id="Layer_1"
   data-name="Layer 1"
   viewBox="0 0 1024 1024"
   version="1.1"
   sodipodi:docname="logo.svg"
   inkscape:version="1.0.1 (3bc2e813f5, 2020-09-07)">
  <metadata
     id="metadata861">
    <rdf:RDF>
      <cc:Work
         rdf:about="">
        <dc:format>image/svg+xml</dc:format>
        <dc:type
           rdf:resource="http://purl.org/dc/dcmitype/StillImage" />
      </cc:Work>
    </rdf:RDF>
  </metadata>
  <sodipodi:namedview
     pagecolor="#ffffff"
     bordercolor="#666666"
     borderopacity="1"
     objecttolerance="10"
     gridtolerance="10"
     guidetolerance="10"
     inkscape:pageopacity="0"
     inkscape:pageshadow="2"
     inkscape:window-width="1920"
     inkscape:window-height="1017"
     id="namedview859"
     showgrid="false"
     inkscape:zoom="0.5"
     inkscape:cx="789.1836"
     inkscape:cy="423.22885"
     inkscape:window-x="1906"
     inkscape:window-y="1072"
     inkscape:window-maximized="1"
     inkscape:current-layer="Layer_1" />
  <defs
     id="defs850">
    <style
       id="style848">.cls-2{fill:#2a2700}</style>
  </defs>
  <path
     fill="#fffadf"
     d="M 0,0 H 1024 V 1024 H 0 Z"
     id="path852"
     style="stroke-width:1.00098" />
  <path
     class="cls-2"
     d="m 171.0625,570.30752 q 6.375,-6.68555 17.75,-6.6875 11.25,0 17.6875,6.625 a 22.58773,22.58773 0 0 1 6.4375,16.375 21.73156,21.73156 0 0 1 -6.5625,16.1875 q -6.5625,6.43653 -17.5625,6.4375 -11.127,0 -17.625,-6.5 a 21.889,21.889 0 0 1 -6.5,-16.125 22.76341,22.76341 0 0 1 6.375,-16.3125 z m 195,-98.8125 v 107 h 36.625 v 28.25 h -110.25 v -28.25 h 38.5 v -78.625 h -38.5 v -28.375 z m -36.1875,-42.0625 a 17.333,17.333 0 0 1 4.0625,-5.9375 19.42063,19.42063 0 0 1 6.3125,-3.75 23.28921,23.28921 0 0 1 8.1875,-1.375 q 9.249,0 14.6875,5.1875 a 19.01509,19.01509 0 0 1 0,26.625 q -5.4375,5.18847 -14.6875,5.1875 a 23.245,23.245 0 0 1 -8.1875,-1.375 18.25707,18.25707 0 0 1 -6.3125,-3.875 16.051,16.051 0 0 1 -4.0625,-5.8125 19.95924,19.95924 0 0 1 0,-14.875 z m 106.875,80.5625 a 65.01689,65.01689 0 0 1 10.4375,-21.875 47.98364,47.98364 0 0 1 16.6875,-14.125 48.74629,48.74629 0 0 1 22.4375,-5 43.274,43.274 0 0 1 18.6875,3.8125 44.737,44.737 0 0 1 14.3125,10.8125 v -68.875 h 34.875 v 192 h -31.375 l -1.75,-14.125 a 45.86446,45.86446 0 0 1 -15,12.25 43.65032,43.65032 0 0 1 -20,4.375 46.75219,46.75219 0 0 1 -22.1875,-5.1875 48.681,48.681 0 0 1 -16.5625,-14.3125 66.06832,66.06832 0 0 1 -10.5,-21.6875 98.13336,98.13336 0 0 1 -3.625,-27.3125 v -2.625 a 104.33,104.33 0 0 1 3.5625,-28.125 z m 32.625,46.5625 a 38.72254,38.72254 0 0 0 4.6875,12.6875 24.4216,24.4216 0 0 0 8.375,8.625 23.5716,23.5716 0 0 0 12.5,3.125 q 9,0 14.9375,-3.875 a 27.52348,27.52348 0 0 0 9.4375,-10.625 v -54.75 a 27.04542,27.04542 0 0 0 -9.375,-10.6875 q -5.877,-3.81153 -14.75,-3.8125 a 23.5406,23.5406 0 0 0 -12.5625,3.1875 24.80134,24.80134 0 0 0 -8.4375,8.6875 42.86,42.86 0 0 0 -4.75,13.0625 80.57609,80.57609 0 0 0 -1.5,15.9375 v 2.625 a 81.94057,81.94057 0 0 0 1.4375,15.8125 z m 203.9375,-141.8125 v 163.75 h 38.75 v 28.25 h -114.375 v -28.25 h 40.5 v -135.375 h -40.5 v -28.375 z m 108,189.375 a 66.53482,66.53482 0 0 1 -21.875,-14 60.15414,60.15414 0 0 1 -14.0625,-20.6875 66.18205,66.18205 0 0 1 -4.9375,-25.5625 v -5 a 79.04169,79.04169 0 0 1 4.875,-28.3125 65.67459,65.67459 0 0 1 13.625,-22.0625 61.45107,61.45107 0 0 1 20.75,-14.375 65.82606,65.82606 0 0 1 26.125,-5.125 66.69427,66.69427 0 0 1 26.0625,4.8125 54.72751,54.72751 0 0 1 19.4375,13.5625 59.11466,59.11466 0 0 1 12,21.0625 85.1836,85.1836 0 0 1 4.125,27.1875 v 14.75 h -91.75 v 0.375 a 47.84259,47.84259 0 0 0 4.5,13.0625 33.03922,33.03922 0 0 0 7.375,8.9375 34.62345,34.62345 0 0 0 10.875,6.375 38.50178,38.50178 0 0 0 13.375,2.25 52.74719,52.74719 0 0 0 19.875,-3.875 36.60016,36.60016 0 0 0 15.625,-11.625 l 17.375,18.75 q -6.627,9.375 -21,17 -14.376,7.626 -34,7.625 a 75.463,75.463 0 0 1 -28.375,-5.125 z m 13.5,-104.9375 a 24.70053,24.70053 0 0 0 -8.5,5.9375 33.454,33.454 0 0 0 -6.25,9.25 50.51069,50.51069 0 0 0 -3.75,12 h 57 v -2.75 a 27.09288,27.09288 0 0 0 -2,-10.375 26.72551,26.72551 0 0 0 -5.5,-8.5 25.61322,25.61322 0 0 0 -8.5625,-5.5625 30.80054,30.80054 0 0 0 -11.6875,-2.0625 27.31174,27.31174 0 0 0 -10.75,2.0625 z"
     id="path856" />
</svg>
